<?xml version="1.0" encoding="utf-8"?>
<svg xmlns="http://www.w3.org/2000/svg" viewBox="0 0 43.916 43.916" fill="none" stroke="#ffffff" stroke-width="2.5" stroke-linecap="round" stroke-linejoin="round">
  <path d="M34.395 0H9.522c-2.762 0-5 2.239-5 5v33.916c0 2.761 2.238 5 5 5h24.871c2.762 0 5-2.239 5-5V5c0-2.761-2.241-5-5-5zm-25.187 16.855c0-1.172.951-2.121 2.121-2.121h.742a5.522 5.522 0 0 1-1.277-3.304c0-2.723 2.209-4.931 4.932-4.931s4.932 2.207 4.932 4.932c0 1.272-.486 2.429-1.279 3.303h.709a2.121 2.121 0 0 1 2.121 2.121v3.578a2.108 2.108 0 0 1-1.975 2.106h-9.051a2.108 2.108 0 0 1-1.975-2.106zm23.5 20.561h-21.5a2 2 0 1 1 0-4h21.5a2 2 0 1 1 0 4zm0-7.5h-21.5a2 2 0 1 1 0-4h21.5a2 2 0 1 1 0 4zm0-7.5h-6.5a2 2 0 0 1 0-4h6.5a2 2 0 0 1 0 4z"/>
</svg>
