<?xml version="1.0" encoding="utf-8"?>
<svg xmlns="http://www.w3.org/2000/svg" viewBox="0 0 100 100" fill="none" stroke="#ffffff" stroke-width="4" stroke-linecap="round" stroke-linejoin="round">
  <rect x="43.93" y="68.27" width="36.07" height="7.99" rx="2" ry="2"/>
  <path d="M33.82 76.26h-4a2 2 0 0 1-2-2v-4a2 2 0 0 1 2-2h4a2 2 0 0 1 2 2v4A1.9 1.9 0 0 1 33.82 76.26Z"/>
  <path d="M33.82 58.41h-4a2 2 0 0 1-2-2v-4a2 2 0 0 1 2-2h4a2 2 0 0 1 2 2v4A1.9 1.9 0 0 1 33.82 58.41Z"/>
  <rect x="43.93" y="50.42" width="36.07" height="7.99" rx="2" ry="2"/>
  <rect x="49.92" y="32.57" width="30.08" height="7.99" rx="2" ry="2"/>
  <path d="M47.55 26.33 45.43 24.21a1.44 1.44 0 0 0-2.12 0L30.08 37.32l-5.37-5.24a1.44 1.44 0 0 0-2.12 0L20.47 34.2a1.44 1.44 0 0 0 0 2.12l7.36 7.36a3 3 0 0 0 4.24 0L47.55 28.46a1.69 1.69 0 0 0 0-2.12Z"/>
</svg>
