<?xml version="1.0" encoding="utf-8"?>
<svg xmlns="http://www.w3.org/2000/svg" aria-label="Orcid" role="img" viewBox="0 0 512 512">
  <circle cx="256" cy="256" r="230" fill="none" stroke="#ffffff" stroke-width="32"/>
  <path d="M173 372h-31V158h31zm45-214h83c79 0 114 57 114 107 0 55-43 107-114 107h-84zm31 187h49c70 0 86-53 86-79 0-43-27-79-87-79h-47zm-71-231c0 11-9 20-20 20s-20-9-20-20a20 20 0 0120-20c11 0 20 9 20 20z" fill="none" stroke="#ffffff" stroke-width="24" stroke-linejoin="round" stroke-linecap="round"/>
</svg>
